<mxfile host="app.diagrams.net" modified="2023-05-09T00:27:24.347Z" agent="Mozilla/5.0 (Windows NT 10.0; Win64; x64) AppleWebKit/537.36 (KHTML, like Gecko) Chrome/112.0.0.0 Safari/537.36" version="21.2.9" etag="th0JufPVgv5ITHHEKAsP" type="github">
  <diagram name="第 1 页" id="3Fi4PHyr0sNlPwbl5L7e">
    <mxGraphModel>
      <root>
        <mxCell id="0" />
        <mxCell id="1" parent="0" />
      </root>
    </mxGraphModel>
  </diagram>
</mxfile>
